<svg xmlns="http://www.w3.org/2000/svg" viewBox="0 0 64 64" role="img" aria-label="Digi-Assistent">
  <defs>
    <linearGradient id="bg" x1="8" y1="6" x2="56" y2="58" gradientUnits="userSpaceOnUse">
      <stop offset="0%" stop-color="#162040"/>
      <stop offset="100%" stop-color="#0a1022"/>
    </linearGradient>
    <linearGradient id="accent" x1="34" y1="30" x2="52" y2="42" gradientUnits="userSpaceOnUse">
      <stop offset="0%" stop-color="#2ef2b7"/>
      <stop offset="100%" stop-color="#17c999"/>
    </linearGradient>
    <filter id="glow" x="-20%" y="-20%" width="140%" height="140%">
      <feGaussianBlur stdDeviation="1.2" result="blur"/>
      <feMerge>
        <feMergeNode in="blur"/>
        <feMergeNode in="SourceGraphic"/>
      </feMerge>
    </filter>
  </defs>
  <rect width="64" height="64" rx="15" fill="url(#bg)"/>
  <rect x="1" y="1" width="62" height="62" rx="14" fill="none" stroke="rgba(46,242,183,0.22)" stroke-width="1.5"/>
  <path fill="#f8faff" d="M17 16h13.5c9.2 0 14.5 5.4 14.5 16s-5.3 16-14.5 16H17V16zm7 7v26h6.2c5.6 0 8.8-3.4 8.8-13s-3.2-13-8.8-13H24z"/>
  <rect x="40" y="30" width="11" height="4" rx="2" fill="#f8faff"/>
  <path fill="url(#accent)" filter="url(#glow)" d="M44 22l12 10-12 10V22z"/>
</svg>
